<svg width="279" height="94" viewBox="0 0 279 94" fill="none" xmlns="http://www.w3.org/2000/svg">
<ellipse cx="139.5" cy="68.5" rx="139.5" ry="25.5" fill="black"/>
<path d="M50.072 48.024C46.0613 48.024 42.52 46.8933 39.448 44.632C36.376 42.3707 34.2213 39.1707 32.984 35.032L41.112 31.832C41.752 34.264 42.84 36.2053 44.376 37.656C45.912 39.1067 47.832 39.832 50.136 39.832C52.056 39.832 53.6987 39.3627 55.064 38.424C56.4293 37.4427 57.112 36.0987 57.112 34.392C57.112 32.6853 56.4507 31.2987 55.128 30.232C53.848 29.1227 51.544 27.9493 48.216 26.712L45.4 25.688C42.456 24.664 39.9387 23.1067 37.848 21.016C35.7573 18.8827 34.712 16.216 34.712 13.016C34.712 10.6267 35.3307 8.45067 36.568 6.488C37.8053 4.52533 39.5547 2.98933 41.816 1.88C44.0773 0.727997 46.6373 0.151997 49.496 0.151997C53.6347 0.151997 56.8987 1.13333 59.288 3.096C61.6773 5.016 63.32 7.27733 64.216 9.88L56.6 13.08C56.1307 11.672 55.2987 10.4987 54.104 9.56C52.952 8.57866 51.4587 8.088 49.624 8.088C47.7467 8.088 46.1893 8.536 44.952 9.432C43.7573 10.2853 43.16 11.416 43.16 12.824C43.16 14.1893 43.736 15.3627 44.888 16.344C46.04 17.2827 47.9387 18.2 50.584 19.096L53.464 20.056C57.432 21.4213 60.4613 23.2347 62.552 25.496C64.6853 27.7147 65.752 30.6373 65.752 34.264C65.752 37.2507 64.984 39.7893 63.448 41.88C61.912 43.928 59.928 45.464 57.496 46.488C55.1067 47.512 52.632 48.024 50.072 48.024ZM90.2555 48.024C86.9702 48.024 84.0262 47.2987 81.4235 45.848C78.8208 44.3547 76.7728 42.2853 75.2795 39.64C73.8288 36.9947 73.1035 34.008 73.1035 30.68C73.1035 27.352 73.8288 24.3867 75.2795 21.784C76.7728 19.1387 78.8208 17.0693 81.4235 15.576C84.0262 14.0827 86.9702 13.336 90.2555 13.336C93.8822 13.336 96.9968 14.1253 99.5995 15.704C102.202 17.24 104.08 19.4373 105.232 22.296L97.5515 25.496C96.1862 22.5947 93.7542 21.144 90.2555 21.144C87.6955 21.144 85.5835 22.0187 83.9195 23.768C82.2982 25.5173 81.4875 27.8213 81.4875 30.68C81.4875 33.5813 82.2982 35.9067 83.9195 37.656C85.5835 39.4053 87.6955 40.28 90.2555 40.28C93.7968 40.28 96.3568 38.744 97.9355 35.672L105.552 39C104.144 41.8587 102.138 44.0773 99.5355 45.656C96.9328 47.2347 93.8395 48.024 90.2555 48.024ZM164.775 14.36H172.647V18.328H173.159C174.055 16.92 175.356 15.7467 177.063 14.808C178.77 13.8267 180.732 13.336 182.951 13.336C185.895 13.336 188.562 14.0827 190.951 15.576C193.383 17.0267 195.282 19.0747 196.647 21.72C198.012 24.3653 198.695 27.352 198.695 30.68C198.695 34.0507 198.012 37.0587 196.647 39.704C195.282 42.3067 193.383 44.3547 190.951 45.848C188.562 47.2987 185.895 48.024 182.951 48.024C180.732 48.024 178.748 47.5547 176.999 46.616C175.292 45.6773 174.012 44.504 173.159 43.096H172.647L173.159 47.704V60.824H164.775V14.36ZM181.479 40.28C183.058 40.28 184.53 39.8747 185.895 39.064C187.26 38.2533 188.348 37.1227 189.159 35.672C189.97 34.2213 190.375 32.5573 190.375 30.68C190.375 28.8027 189.97 27.1387 189.159 25.688C188.348 24.2373 187.26 23.128 185.895 22.36C184.53 21.5493 183.058 21.144 181.479 21.144C179.943 21.144 178.492 21.5493 177.127 22.36C175.762 23.128 174.674 24.2373 173.863 25.688C173.052 27.1387 172.647 28.8027 172.647 30.68C172.647 32.5573 173.052 34.2213 173.863 35.672C174.674 37.1227 175.762 38.2533 177.127 39.064C178.492 39.8747 179.943 40.28 181.479 40.28ZM222.564 48.024C219.321 48.024 216.399 47.2773 213.796 45.784C211.193 44.2907 209.145 42.2427 207.652 39.64C206.201 36.9947 205.476 34.0293 205.476 30.744C205.476 27.6293 206.201 24.7493 207.652 22.104C209.103 19.416 211.108 17.2827 213.668 15.704C216.228 14.1253 219.087 13.336 222.244 13.336C225.615 13.336 228.516 14.0613 230.948 15.512C233.38 16.9627 235.215 18.9467 236.452 21.464C237.732 23.9813 238.372 26.776 238.372 29.848C238.372 30.8293 238.308 31.768 238.18 32.664H213.668C214.095 35.2667 215.119 37.2507 216.74 38.616C218.404 39.9387 220.388 40.6 222.692 40.6C224.612 40.6 226.255 40.1947 227.62 39.384C229.028 38.5307 230.137 37.4 230.948 35.992L237.732 39.32C234.404 45.1227 229.348 48.024 222.564 48.024ZM230.308 26.712C230.223 25.688 229.839 24.6853 229.156 23.704C228.516 22.68 227.599 21.848 226.404 21.208C225.252 20.5253 223.887 20.184 222.308 20.184C220.303 20.184 218.575 20.7813 217.124 21.976C215.716 23.128 214.692 24.7067 214.052 26.712H230.308Z" fill="#63C0DE"/>
<path d="M131.712 80.024C128.341 80.024 125.333 79.2773 122.688 77.784C120.043 76.248 117.973 74.1787 116.48 71.576C115.029 68.9307 114.304 65.9653 114.304 62.68C114.304 59.4373 115.029 56.4933 116.48 53.848C117.973 51.2027 120.043 49.1333 122.688 47.64C125.333 46.104 128.341 45.336 131.712 45.336C135.04 45.336 138.027 46.104 140.672 47.64C143.317 49.1333 145.365 51.2027 146.816 53.848C148.309 56.4933 149.056 59.4373 149.056 62.68C149.056 65.9653 148.309 68.9307 146.816 71.576C145.365 74.1787 143.317 76.248 140.672 77.784C138.027 79.2773 135.04 80.024 131.712 80.024ZM131.712 72.28C133.333 72.28 134.827 71.896 136.192 71.128C137.557 70.36 138.645 69.2507 139.456 67.8C140.267 66.3493 140.672 64.6427 140.672 62.68C140.672 60.76 140.267 59.0747 139.456 57.624C138.645 56.1733 137.557 55.064 136.192 54.296C134.827 53.528 133.333 53.144 131.712 53.144C130.091 53.144 128.597 53.528 127.232 54.296C125.867 55.064 124.757 56.1733 123.904 57.624C123.093 59.0747 122.688 60.76 122.688 62.68C122.688 64.6 123.093 66.3067 123.904 67.8C124.757 69.2507 125.867 70.36 127.232 71.128C128.597 71.896 130.091 72.28 131.712 72.28Z" fill="white"/>
</svg>
