<svg width="116" height="43" viewBox="0 0 116 43" fill="none" xmlns="http://www.w3.org/2000/svg">
<ellipse cx="58" cy="32.5" rx="58" ry="10.5" fill="white"/>
<path d="M17.94 22.48C16.06 22.48 14.4 21.95 12.96 20.89C11.52 19.83 10.51 18.33 9.93 16.39L13.74 14.89C14.04 16.03 14.55 16.94 15.27 17.62C15.99 18.3 16.89 18.64 17.97 18.64C18.87 18.64 19.64 18.42 20.28 17.98C20.92 17.52 21.24 16.89 21.24 16.09C21.24 15.29 20.93 14.64 20.31 14.14C19.71 13.62 18.63 13.07 17.07 12.49L15.75 12.01C14.37 11.53 13.19 10.8 12.21 9.82C11.23 8.82 10.74 7.57 10.74 6.07C10.74 4.95 11.03 3.93 11.61 3.01C12.19 2.09 13.01 1.37 14.07 0.849999C15.13 0.309999 16.33 0.0399984 17.67 0.0399984C19.61 0.0399984 21.14 0.499998 22.26 1.42C23.38 2.32 24.15 3.38 24.57 4.6L21 6.1C20.78 5.44 20.39 4.89 19.83 4.45C19.29 3.99 18.59 3.76 17.73 3.76C16.85 3.76 16.12 3.97 15.54 4.39C14.98 4.79 14.7 5.32 14.7 5.98C14.7 6.62 14.97 7.17 15.51 7.63C16.05 8.07 16.94 8.5 18.18 8.92L19.53 9.37C21.39 10.01 22.81 10.86 23.79 11.92C24.79 12.96 25.29 14.33 25.29 16.03C25.29 17.43 24.93 18.62 24.21 19.6C23.49 20.56 22.56 21.28 21.42 21.76C20.3 22.24 19.14 22.48 17.94 22.48ZM36.776 22.48C35.236 22.48 33.856 22.14 32.636 21.46C31.416 20.76 30.456 19.79 29.756 18.55C29.076 17.31 28.736 15.91 28.736 14.35C28.736 12.79 29.076 11.4 29.756 10.18C30.456 8.94 31.416 7.97 32.636 7.27C33.856 6.57 35.236 6.22 36.776 6.22C38.476 6.22 39.936 6.59 41.156 7.33C42.376 8.05 43.256 9.08 43.796 10.42L40.196 11.92C39.556 10.56 38.416 9.88 36.776 9.88C35.576 9.88 34.586 10.29 33.806 11.11C33.046 11.93 32.666 13.01 32.666 14.35C32.666 15.71 33.046 16.8 33.806 17.62C34.586 18.44 35.576 18.85 36.776 18.85C38.436 18.85 39.636 18.13 40.376 16.69L43.946 18.25C43.286 19.59 42.346 20.63 41.126 21.37C39.906 22.11 38.456 22.48 36.776 22.48ZM71.707 6.7H75.397V8.56H75.637C76.057 7.9 76.667 7.35 77.467 6.91C78.267 6.45 79.187 6.22 80.227 6.22C81.607 6.22 82.857 6.57 83.977 7.27C85.117 7.95 86.007 8.91 86.647 10.15C87.287 11.39 87.607 12.79 87.607 14.35C87.607 15.93 87.287 17.34 86.647 18.58C86.007 19.8 85.117 20.76 83.977 21.46C82.857 22.14 81.607 22.48 80.227 22.48C79.187 22.48 78.257 22.26 77.437 21.82C76.637 21.38 76.037 20.83 75.637 20.17H75.397L75.637 22.33V28.48H71.707V6.7ZM79.537 18.85C80.277 18.85 80.967 18.66 81.607 18.28C82.247 17.9 82.757 17.37 83.137 16.69C83.517 16.01 83.707 15.23 83.707 14.35C83.707 13.47 83.517 12.69 83.137 12.01C82.757 11.33 82.247 10.81 81.607 10.45C80.967 10.07 80.277 9.88 79.537 9.88C78.817 9.88 78.137 10.07 77.497 10.45C76.857 10.81 76.347 11.33 75.967 12.01C75.587 12.69 75.397 13.47 75.397 14.35C75.397 15.23 75.587 16.01 75.967 16.69C76.347 17.37 76.857 17.9 77.497 18.28C78.137 18.66 78.817 18.85 79.537 18.85ZM98.7956 22.48C97.2756 22.48 95.9056 22.13 94.6856 21.43C93.4656 20.73 92.5056 19.77 91.8056 18.55C91.1256 17.31 90.7856 15.92 90.7856 14.38C90.7856 12.92 91.1256 11.57 91.8056 10.33C92.4856 9.07 93.4256 8.07 94.6256 7.33C95.8256 6.59 97.1656 6.22 98.6456 6.22C100.226 6.22 101.586 6.56 102.726 7.24C103.866 7.92 104.726 8.85 105.306 10.03C105.906 11.21 106.206 12.52 106.206 13.96C106.206 14.42 106.176 14.86 106.116 15.28H94.6256C94.8256 16.5 95.3056 17.43 96.0656 18.07C96.8456 18.69 97.7756 19 98.8556 19C99.7556 19 100.526 18.81 101.166 18.43C101.826 18.03 102.346 17.5 102.726 16.84L105.906 18.4C104.346 21.12 101.976 22.48 98.7956 22.48ZM102.426 12.49C102.386 12.01 102.206 11.54 101.886 11.08C101.586 10.6 101.156 10.21 100.596 9.91C100.056 9.59 99.4156 9.43 98.6756 9.43C97.7356 9.43 96.9256 9.71 96.2456 10.27C95.5856 10.81 95.1056 11.55 94.8056 12.49H102.426Z" fill="#63C0DE"/>
<path d="M57.24 34.48C55.66 34.48 54.25 34.13 53.01 33.43C51.77 32.71 50.8 31.74 50.1 30.52C49.42 29.28 49.08 27.89 49.08 26.35C49.08 24.83 49.42 23.45 50.1 22.21C50.8 20.97 51.77 20 53.01 19.3C54.25 18.58 55.66 18.22 57.24 18.22C58.8 18.22 60.2 18.58 61.44 19.3C62.68 20 63.64 20.97 64.32 22.21C65.02 23.45 65.37 24.83 65.37 26.35C65.37 27.89 65.02 29.28 64.32 30.52C63.64 31.74 62.68 32.71 61.44 33.43C60.2 34.13 58.8 34.48 57.24 34.48ZM57.24 30.85C58 30.85 58.7 30.67 59.34 30.31C59.98 29.95 60.49 29.43 60.87 28.75C61.25 28.07 61.44 27.27 61.44 26.35C61.44 25.45 61.25 24.66 60.87 23.98C60.49 23.3 59.98 22.78 59.34 22.42C58.7 22.06 58 21.88 57.24 21.88C56.48 21.88 55.78 22.06 55.14 22.42C54.5 22.78 53.98 23.3 53.58 23.98C53.2 24.66 53.01 25.45 53.01 26.35C53.01 27.25 53.2 28.05 53.58 28.75C53.98 29.43 54.5 29.95 55.14 30.31C55.78 30.67 56.48 30.85 57.24 30.85Z" fill="#63C0DE"/>
</svg>
