<svg width="15" height="12" viewBox="0 0 15 12" fill="none" xmlns="http://www.w3.org/2000/svg">
<path d="M12.1977 0.697354C12.4442 0.46266 12.7722 0.332911 13.1126 0.335487C13.4529 0.338062 13.779 0.47276 14.0219 0.711158C14.2649 0.949556 14.4057 1.27301 14.4147 1.61326C14.4237 1.95351 14.3002 2.28395 14.0702 2.53485L7.08765 11.2674C6.96759 11.3967 6.82268 11.5005 6.66158 11.5725C6.50049 11.6445 6.32653 11.6833 6.15009 11.6866C5.97366 11.6899 5.79838 11.6575 5.63473 11.5915C5.47108 11.5255 5.32242 11.4271 5.19765 11.3024L0.567154 6.67185C0.438202 6.5517 0.334773 6.4068 0.263037 6.2458C0.191301 6.0848 0.152728 5.911 0.149618 5.73477C0.146509 5.55854 0.178927 5.38349 0.244939 5.22006C0.310951 5.05663 0.409204 4.90817 0.533837 4.78354C0.65847 4.65891 0.806929 4.56065 0.970358 4.49464C1.13379 4.42863 1.30884 4.39621 1.48507 4.39932C1.6613 4.40243 1.8351 4.441 1.9961 4.51274C2.15709 4.58447 2.30199 4.6879 2.42215 4.81685L6.08665 8.47961L12.1644 0.735855C12.1753 0.722381 12.187 0.709528 12.1994 0.697354H12.1977Z" fill="white"/>
</svg>
