<svg width="30" height="30" viewBox="0 0 30 30" fill="none" xmlns="http://www.w3.org/2000/svg">
<circle cx="15" cy="15" r="14" fill="#2C2C2C" stroke="#61BBCE" stroke-width="2"/>
<path d="M20.1977 9.69735C20.4442 9.46266 20.7722 9.33291 21.1126 9.33549C21.4529 9.33806 21.779 9.47276 22.0219 9.71116C22.2649 9.94956 22.4057 10.273 22.4147 10.6133C22.4237 10.9535 22.3002 11.284 22.0702 11.5349L15.0877 20.2674C14.9676 20.3967 14.8227 20.5005 14.6616 20.5725C14.5005 20.6445 14.3265 20.6833 14.1501 20.6866C13.9737 20.6899 13.7984 20.6575 13.6347 20.5915C13.4711 20.5255 13.3224 20.4271 13.1977 20.3024L8.56715 15.6719C8.4382 15.5517 8.33477 15.4068 8.26304 15.2458C8.1913 15.0848 8.15273 14.911 8.14962 14.7348C8.14651 14.5585 8.17893 14.3835 8.24494 14.2201C8.31095 14.0566 8.4092 13.9082 8.53384 13.7835C8.65847 13.6589 8.80693 13.5607 8.97036 13.4946C9.13379 13.4286 9.30884 13.3962 9.48507 13.3993C9.6613 13.4024 9.8351 13.441 9.9961 13.5127C10.1571 13.5845 10.302 13.6879 10.4222 13.8169L14.0867 17.4796L20.1644 9.73585C20.1753 9.72238 20.187 9.70953 20.1994 9.69735H20.1977Z" fill="white"/>
</svg>
