<svg width="207" height="61" viewBox="0 0 207 61" fill="none" xmlns="http://www.w3.org/2000/svg">
<path d="M18.072 48.024C14.0613 48.024 10.52 46.8933 7.448 44.632C4.376 42.3707 2.22133 39.1707 0.984 35.032L9.112 31.832C9.752 34.264 10.84 36.2053 12.376 37.656C13.912 39.1067 15.832 39.832 18.136 39.832C20.056 39.832 21.6987 39.3627 23.064 38.424C24.4293 37.4427 25.112 36.0987 25.112 34.392C25.112 32.6853 24.4507 31.2987 23.128 30.232C21.848 29.1227 19.544 27.9493 16.216 26.712L13.4 25.688C10.456 24.664 7.93867 23.1067 5.848 21.016C3.75733 18.8827 2.712 16.216 2.712 13.016C2.712 10.6267 3.33067 8.45067 4.568 6.488C5.80533 4.52533 7.55467 2.98933 9.816 1.88C12.0773 0.727997 14.6373 0.151997 17.496 0.151997C21.6347 0.151997 24.8987 1.13333 27.288 3.096C29.6773 5.016 31.32 7.27733 32.216 9.88L24.6 13.08C24.1307 11.672 23.2987 10.4987 22.104 9.56C20.952 8.57866 19.4587 8.088 17.624 8.088C15.7467 8.088 14.1893 8.536 12.952 9.432C11.7573 10.2853 11.16 11.416 11.16 12.824C11.16 14.1893 11.736 15.3627 12.888 16.344C14.04 17.2827 15.9387 18.2 18.584 19.096L21.464 20.056C25.432 21.4213 28.4613 23.2347 30.552 25.496C32.6853 27.7147 33.752 30.6373 33.752 34.264C33.752 37.2507 32.984 39.7893 31.448 41.88C29.912 43.928 27.928 45.464 25.496 46.488C23.1067 47.512 20.632 48.024 18.072 48.024ZM58.2555 48.024C54.9702 48.024 52.0262 47.2987 49.4235 45.848C46.8208 44.3547 44.7728 42.2853 43.2795 39.64C41.8288 36.9947 41.1035 34.008 41.1035 30.68C41.1035 27.352 41.8288 24.3867 43.2795 21.784C44.7728 19.1387 46.8208 17.0693 49.4235 15.576C52.0262 14.0827 54.9702 13.336 58.2555 13.336C61.8822 13.336 64.9968 14.1253 67.5995 15.704C70.2022 17.24 72.0795 19.4373 73.2315 22.296L65.5515 25.496C64.1862 22.5947 61.7542 21.144 58.2555 21.144C55.6955 21.144 53.5835 22.0187 51.9195 23.768C50.2982 25.5173 49.4875 27.8213 49.4875 30.68C49.4875 33.5813 50.2982 35.9067 51.9195 37.656C53.5835 39.4053 55.6955 40.28 58.2555 40.28C61.7968 40.28 64.3568 38.744 65.9355 35.672L73.5515 39C72.1435 41.8587 70.1382 44.0773 67.5355 45.656C64.9328 47.2347 61.8395 48.024 58.2555 48.024ZM132.775 14.36H140.647V18.328H141.159C142.055 16.92 143.356 15.7467 145.063 14.808C146.77 13.8267 148.732 13.336 150.951 13.336C153.895 13.336 156.562 14.0827 158.951 15.576C161.383 17.0267 163.282 19.0747 164.647 21.72C166.012 24.3653 166.695 27.352 166.695 30.68C166.695 34.0507 166.012 37.0587 164.647 39.704C163.282 42.3067 161.383 44.3547 158.951 45.848C156.562 47.2987 153.895 48.024 150.951 48.024C148.732 48.024 146.748 47.5547 144.999 46.616C143.292 45.6773 142.012 44.504 141.159 43.096H140.647L141.159 47.704V60.824H132.775V14.36ZM149.479 40.28C151.058 40.28 152.53 39.8747 153.895 39.064C155.26 38.2533 156.348 37.1227 157.159 35.672C157.97 34.2213 158.375 32.5573 158.375 30.68C158.375 28.8027 157.97 27.1387 157.159 25.688C156.348 24.2373 155.26 23.128 153.895 22.36C152.53 21.5493 151.058 21.144 149.479 21.144C147.943 21.144 146.492 21.5493 145.127 22.36C143.762 23.128 142.674 24.2373 141.863 25.688C141.052 27.1387 140.647 28.8027 140.647 30.68C140.647 32.5573 141.052 34.2213 141.863 35.672C142.674 37.1227 143.762 38.2533 145.127 39.064C146.492 39.8747 147.943 40.28 149.479 40.28ZM190.564 48.024C187.321 48.024 184.399 47.2773 181.796 45.784C179.193 44.2907 177.145 42.2427 175.652 39.64C174.201 36.9947 173.476 34.0293 173.476 30.744C173.476 27.6293 174.201 24.7493 175.652 22.104C177.103 19.416 179.108 17.2827 181.668 15.704C184.228 14.1253 187.087 13.336 190.244 13.336C193.615 13.336 196.516 14.0613 198.948 15.512C201.38 16.9627 203.215 18.9467 204.452 21.464C205.732 23.9813 206.372 26.776 206.372 29.848C206.372 30.8293 206.308 31.768 206.18 32.664H181.668C182.095 35.2667 183.119 37.2507 184.74 38.616C186.404 39.9387 188.388 40.6 190.692 40.6C192.612 40.6 194.255 40.1947 195.62 39.384C197.028 38.5307 198.137 37.4 198.948 35.992L205.732 39.32C202.404 45.1227 197.348 48.024 190.564 48.024ZM198.308 26.712C198.223 25.688 197.839 24.6853 197.156 23.704C196.516 22.68 195.599 21.848 194.404 21.208C193.252 20.5253 191.887 20.184 190.308 20.184C188.303 20.184 186.575 20.7813 185.124 21.976C183.716 23.128 182.692 24.7067 182.052 26.712H198.308Z" fill="#63C0DE"/>
</svg>
